<?xml version="1.0" encoding="utf-8"?>
<!-- Generator: Adobe Illustrator 18.1.1, SVG Export Plug-In . SVG Version: 6.00 Build 0)  -->
<!DOCTYPE svg PUBLIC "-//W3C//DTD SVG 1.1//EN" "http://www.w3.org/Graphics/SVG/1.1/DTD/svg11.dtd">
<svg version="1.1" id="_x32_" xmlns="http://www.w3.org/2000/svg" xmlns:xlink="http://www.w3.org/1999/xlink" x="0px" y="0px"
	 viewBox="0 0 512 512" style="enable-background:new 0 0 512 512;" xml:space="preserve">
<style type="text/css">
	.st0{fill:#4B4B4B;}
</style>
<g>
	<path class="st0" d="M159.194,146.474H106.7c-2.893,0-5.415,1.514-5.64,3.397l-4.803,39.649c-0.304,2.522,2.19,4.592,5.6,4.592
		h61.888c3.411,0,5.931-2.07,5.64-4.592l-4.566-39.649C164.594,147.988,162.086,146.474,159.194,146.474z"/>
	<path class="st0" d="M403.776,146.474h-52.494c-2.893,0-5.415,1.514-5.64,3.397l-4.803,39.649c-0.304,2.522,2.19,4.592,5.6,4.592
		h61.888c3.41,0,5.931-2.07,5.64-4.592l-4.566-39.649C409.175,147.988,406.667,146.474,403.776,146.474z"/>
	<path class="st0" d="M507.793,169.456l-8.824-23.089c-6.794-17.848-23.088-32.908-47.12-43.55
		c-21.404-9.473-47.517-14.688-73.551-14.688c-26.036,0-52.149,5.215-73.553,14.688c-23.965,10.616-40.3,25.664-47.265,43.591
		l-1.527,4.06l-1.565-4.101c-6.794-17.848-23.089-32.908-47.12-43.55c-21.404-9.473-47.517-14.688-73.551-14.688
		c-26.036,0-52.149,5.215-73.552,14.688c-23.965,10.616-40.3,25.664-47.266,43.591l-8.692,23.075
		c-2.614,6.927-4.021,14.052-4.193,22.172L0,336.77c0.027,23.872,14.345,46.748,39.278,62.765
		c24.72,15.91,57.376,24.322,94.398,24.336c37.022-0.014,69.665-8.426,94.425-24.349c11.85-7.618,21.212-16.799,27.88-26.884
		c6.661,10.085,16.023,19.28,27.88,26.897c24.72,15.91,57.376,24.322,94.398,24.336c37.021-0.014,69.665-8.426,94.424-24.349
		c24.934-16.016,39.265-38.893,39.318-62.791V190.675C511.855,183.589,510.435,176.464,507.793,169.456z M378.298,248.874
		c-30.812,0-58.598-6.927-78.171-19.479c-16.534-10.748-25.65-24.151-25.65-38.283c0.12-3.834,0.837-7.418,2.19-10.96l8.85-23.262
		c3.676-9.779,15.353-19.784,31.263-26.79c17.675-7.79,39.516-12.089,61.518-12.089c21.986,0,43.841,4.299,61.53,12.089
		c15.91,7.006,27.586,17.011,31.263,26.817l8.771,23.063c1.406,4.007,2.15,7.643,2.256,11.676c0,13.615-9.102,26.95-25.636,37.592
		C436.961,241.908,409.189,248.874,378.298,248.874z M133.717,248.874c-30.812,0-58.598-6.927-78.171-19.479
		c-16.534-10.748-25.65-24.151-25.65-38.283c0.12-3.834,0.837-7.418,2.19-10.96l8.85-23.262c3.676-9.779,15.353-19.784,31.263-26.79
		c17.675-7.79,39.516-12.089,61.518-12.089c21.986,0,43.841,4.299,61.53,12.089c15.91,7.006,27.586,17.011,31.263,26.817
		l8.771,23.063c1.406,4.007,2.149,7.643,2.256,11.676c0,13.615-9.103,26.95-25.636,37.592
		C192.38,241.908,164.607,248.874,133.717,248.874z"/>
</g>
</svg>
