<!--?xml version="1.0" encoding="utf-8"?-->
<!-- Generator: Adobe Illustrator 18.1.1, SVG Export Plug-In . SVG Version: 6.00 Build 0)  -->

<svg version="1.1" id="_x32_" xmlns="http://www.w3.org/2000/svg" xmlns:xlink="http://www.w3.org/1999/xlink" x="0px" y="0px" viewBox="0 0 512 512" style="width: 128px; height: 128px; opacity: 1;" xml:space="preserve">
<style type="text/css">
	.st0{fill:#4B4B4B;}
</style>
<g>
	<path class="st0" d="M330.708,150.486c-5.627-2.414-24.522-16.732-39.02-27.289c14.342-6.269,28.723-16.387,29.036-20.596
		c0.533-6.88-19.076-17.484-24.373-19.608c-5.314-2.116-20.964,3.715-27.649,3.362c-10.07-0.533-0.541,16.427,4.765,16.427
		c5.298,0,17.053-3.888,18.644-1.238c1.293,2.163,0.901,8.048-6.975,16.912c-2.445-1.771-4.608-3.315-6.371-4.537
		c-12.187-8.48-20.666-21.199-20.666-21.199s0,0-2.116-5.305c-2.124-5.298-36.575,0.533-36.575,0.533s0-4.24-4.765-6.889
		c-4.781-2.649-21.206-3.715-20.141,3.714c1.058,7.414-21.544,46.78-24.381,50.346c-2.124,2.649,0.533,4.757,7.947,1.058
		c2.187-1.097,5.478-3.887,9.075-7.366c1.246,3.448,2.923,7.782,4.71,11.606c1.763,3.762,2.437,7.406,3.856,9.523
		c-12.241,10.579-23.848,18.095-26.654,19.624c-5.823,3.182-2.116,5.838,19.083,4.248c6.121-0.47,13.417-4.342,20.8-10.016
		c0.815,2.297,3.088,3.542,6.764,2.594c12.178-3.182,63.064-8.487,69.953-11.662c1.543-0.705,2.155-1.998,2.061-3.566
		c17.43,14.287,28.378,28.041,35.87,26.333C358.596,169.538,360.18,163.174,330.708,150.486z M206.876,139.476
		c-2.963-6.098-9.656-13.088-13.582-16.897c1.88-1.998,3.746-4.021,5.47-5.94c2.79,6.058,7.422,14.098,13.511,16.998
		C210.536,135.628,208.733,137.586,206.876,139.476z M222.785,119.091c-6.576-3.557-14.616-6.724-18.903-8.323
		c1.975-2.32,3.386-4.083,3.872-4.804c2.108-3.182,20.125-1.592,19.608,2.649C226.32,112.116,224.752,115.627,222.785,119.091z
		 M270.818,137.241c-9.906,0.518-40.047,7.994-42.813,8.456c10.619-11.951,19.2-24.827,21.614-32.311
		c1.34,3.652,10.322,13.197,21.983,23.84C271.344,137.226,271.077,137.226,270.818,137.241z" style="fill: rgb(75, 75, 75);"></path>
	<path class="st0" d="M264.917,186.63c13.002-2.421,23.676-4.342,26.567-4.342c7.43,0,15.369,1.591,17.492-2.124
		c2.116-3.707-1.59-19.084-23.322-18.551c-21.732,0.534-76.842,12.728-76.842,12.728c-14.31,3.699-22.798,0-21.732,5.298
		c1.175,5.917,3.181,17.484,20.674,16.426c1.192-0.078,2.586-0.204,4.13-0.376c-2.328,1.709-5.533,3.888-9.969,6.732
		c-14.835,9.538-22.296,8.887-25.439,20.666c-2.116,7.954,6.363,20.674,25.98,10.604c19.592-10.071,20.666-37.093,20.666-37.093
		c0.125-0.533,0.062-1.442-0.141-2.46c4.358-0.682,9.177-1.505,14.185-2.398c-0.133,3.644-0.266,7.774-0.266,9.624
		c0,3.715,2.115,26.504,0.525,25.972c-1.584-0.533-17.484-6.889-17.484-6.889s-4.772,1.058-1.591,5.298
		c3.174,4.24,14.836,9.537,20.133,14.835c5.314,5.298,20.15,7.947,24.914-0.533c4.765-8.48,1.066-27.022,0-34.968
		C262.636,199.365,264.055,190.94,264.917,186.63z" style="fill: rgb(75, 75, 75);"></path>
	<path class="st0" d="M287.244,185.462c-4.764-0.533-10.596,1.592-6.889,7.948c4.773,8.19,15.902,25.98,14.31,30.211
		c-1.59,4.248-5.698,5.165-3.574,6.239c2.116,1.05,12.587,11.786,25.298,4.365c12.72-7.422,16.96-14.835,2.132-30.745
		C303.679,187.587,292.01,185.996,287.244,185.462z" style="fill: rgb(75, 75, 75);"></path>
	<path class="st0" d="M464.115,156.536c-1.835-19.372-6.145-38.902-14.17-57.383c-6.019-13.871-14.122-27.131-24.734-39.161
		c-15.909-18.056-37.43-33.206-65.314-43.66C331.986,5.87,297.794,0,255.999,0c-37.14,0-68.3,4.639-94.35,13.025
		c-19.545,6.277-36.223,14.687-50.259,24.773C90.332,52.915,75.316,71.802,65.245,92.265
		c-10.086,20.478-15.305,42.485-17.351,64.271c-0.462,4.922-0.682,9.828-0.682,14.71c0.016,33.23,10.189,65.197,25.432,92.696
		c15.266,27.508,35.588,50.635,56.975,66.278l3.127,2.273h3.855h0.298h3.785l0.564-0.4c21.301,12.986,44.624,22.727,69.773,28.691
		c8.221,1.959,16.559,3.472,24.788,4.53v126.497c0,11.128,9.06,20.188,20.196,20.188c11.128,0,20.189-9.06,20.189-20.188V365.307
		c8.205-1.05,16.544-2.563,24.788-4.522c25.134-5.964,48.46-15.705,69.776-28.699l0.565,0.408h4.059h3.871l3.119-2.273
		c21.395-15.642,41.709-38.769,56.991-66.278c15.235-27.5,25.408-59.46,25.423-92.688
		C464.788,166.364,464.569,161.458,464.115,156.536z M134.893,328.324c0.188,0.125,0.384,0.219,0.572,0.337
		C135.026,328.543,134.736,328.434,134.893,328.324z M149.885,318.888c6.552-3.73,13.323-7.139,20.267-10.204l41.763,35.956
		C189.65,339.076,168.874,330.408,149.885,318.888z M186.939,302.164c7.233-2.46,14.623-4.546,22.163-6.223l25.274,47.046
		L186.939,302.164z M248.052,334.868l-22.515-41.928c7.398-1.05,14.89-1.748,22.515-2.038V334.868z M263.945,334.821v-43.919
		c7.618,0.29,15.11,0.987,22.5,2.038L263.945,334.821z M302.879,295.941c7.556,1.677,14.938,3.762,22.171,6.215l-47.445,40.839
		L302.879,295.941z M300.058,344.64l41.782-35.964c6.96,3.057,13.731,6.474,20.283,10.212
		C343.11,330.416,322.339,339.092,300.058,344.64z M376.528,328.661c0.188-0.126,0.392-0.22,0.58-0.345
		C377.264,328.426,376.982,328.543,376.528,328.661z M418.66,252.462c-12.022,21.724-27.838,40.47-43.872,53.675
		c-34.169-22.249-75.012-35.204-118.789-35.196c-43.778-0.008-84.625,12.947-118.778,35.196
		c-16.05-13.205-31.85-31.951-43.872-53.683c-13.66-24.6-22.477-52.908-22.462-81.208c0-4.161,0.189-8.33,0.58-12.5
		c1.638-17.359,5.486-34.436,12.32-50.172c5.125-11.802,11.912-22.876,20.76-32.924c13.291-15.039,31.238-27.876,55.885-37.148
		c24.624-9.247,55.98-14.82,95.565-14.82c35.18,0,63.871,4.405,87.112,11.881c17.43,5.604,31.788,12.924,43.684,21.458
		c17.805,12.822,30.157,28.386,38.715,45.706c8.542,17.32,13.182,36.474,15.016,56.018c0.392,4.17,0.58,8.339,0.58,12.508
		C441.12,199.562,432.296,227.854,418.66,252.462z" style="fill: rgb(75, 75, 75);"></path>
</g>
</svg>
