<!--?xml version="1.0" encoding="utf-8"?-->
<!-- Generator: Adobe Illustrator 18.1.1, SVG Export Plug-In . SVG Version: 6.00 Build 0)  -->

<svg version="1.1" id="_x32_" xmlns="http://www.w3.org/2000/svg" xmlns:xlink="http://www.w3.org/1999/xlink" x="0px" y="0px" viewBox="0 0 512 512" style="width: 128px; height: 128px; opacity: 1;" xml:space="preserve">
<style type="text/css">
	.st0{fill:#4B4B4B;}
</style>
<g>
	<path class="st0" d="M316.44,53.567c15.212-15.416,21.075-35.809,16.782-52.331c-16.586-4.09-36.9,2.033-52.12,17.441
		c-15.212,15.4-21.084,35.809-16.774,52.324C280.89,75.106,301.212,68.984,316.44,53.567z" style="fill: rgb(75, 75, 75);"></path>
	<path class="st0" d="M474.635,305.398l-0.023-0.008c-14.435-22.669-35.385-42.7-60.872-59.129
		c-2.292-10-6.318-19.529-11.703-28.375c-13.006-21.257-33.391-39.584-58.469-52.92c-3.337-1.766-6.766-3.422-10.268-5.016
		c2.034-5.926,3.179-12.151,3.179-18.627c0-37.276-36.02-67.504-80.471-67.504c-44.458,0-80.487,30.228-80.487,67.504
		c0,6.508,1.154,12.778,3.203,18.729c-12.261,5.557-23.611,12.221-33.65,19.82l-0.032,0.015
		c-14.395,10.974-26.389,23.784-35.07,37.999l-0.031,0.046c-5.354,8.878-9.388,18.391-11.68,28.384
		c-2.881,1.821-5.808,3.619-8.501,5.541c-21.562,15.322-39.537,33.344-52.371,53.541c-12.778,20.118-20.471,42.622-20.486,65.88
		c-0.016,23.375,7.982,44.945,21.483,62.81c20.314,26.806,51.751,45.706,89.067,58.548l0.023,0.008
		c37.496,12.755,81.532,19.348,128.533,19.356c62.756-0.102,120.017-11.648,163.706-34.254l0.023-0.016
		c21.83-11.405,40.417-25.777,53.878-43.642c13.485-17.865,21.515-39.435,21.483-62.81
		C495.098,348.019,487.382,325.515,474.635,305.398z M136.227,237.901c0.588-0.942,1.17-1.954,1.75-2.975
		c9.246-15.204,25.322-30.125,45.856-41.044c4.356-2.308,8.94-4.388,13.65-6.311c14.678,13.053,35.432,21.248,58.524,21.248
		c23.062,0,43.792-8.179,58.47-21.209c12.151,4.953,23.227,11.186,32.693,18.352c11.578,8.807,20.738,18.854,26.915,28.964
		c0.581,1.021,1.17,2.033,1.68,2.975c5.094,9.168,7.575,18.337,7.575,26.712l-0.071,1.46c-0.227,8.58-3.054,15.714-8.375,22.473
		c-8.438,10.628-23.94,19.875-44.67,26.06c-20.745,6.17-46.421,9.388-74.216,9.388c-37.041,0.063-70.29-5.825-93.148-16.531
		c-11.412-5.376-20.078-11.852-25.667-18.916c-5.33-6.758-8.171-13.893-8.438-22.473l-0.087-1.46
		C128.668,256.238,131.219,247.069,136.227,237.901z M447.429,414.354c-14.544,19.435-40.157,35.95-73.485,47.292
		c-33.25,11.35-73.996,17.614-117.937,17.614c-58.587,0-111.476-11.208-148.588-30.565c-18.556-9.678-33.101-21.389-42.85-34.341
		c-9.749-12.951-14.842-27.057-14.929-43.077c0-15.927,5.322-32.379,15.44-48.305c10.024-15.871,24.882-31.075,43.43-44.168
		c2.12,8.58,6.13,16.515,11.578,23.344c12.645,15.73,32.151,26.35,55.51,33.336c23.43,6.978,50.926,10.33,80.408,10.33
		c39.294,0,75.158-5.895,102.379-18.626c13.595-6.326,25.158-14.56,33.533-25.039c5.534-6.829,9.545-14.764,11.57-23.415
		c18.572,13.164,33.399,28.368,43.517,44.239c10.032,15.926,15.346,32.378,15.346,48.305
		C462.28,387.297,457.194,401.403,447.429,414.354z" style="fill: rgb(75, 75, 75);"></path>
</g>
</svg>
