<!--?xml version="1.0" encoding="utf-8"?-->
<!-- Generator: Adobe Illustrator 18.1.1, SVG Export Plug-In . SVG Version: 6.00 Build 0)  -->

<svg version="1.1" id="_x32_" xmlns="http://www.w3.org/2000/svg" xmlns:xlink="http://www.w3.org/1999/xlink" x="0px" y="0px" viewBox="0 0 512 512" style="width: 128px; height: 128px; opacity: 1;" xml:space="preserve">
<style type="text/css">
	.st0{fill:#4B4B4B;}
</style>
<g>
	<path class="st0" d="M358.238,273.183c0.606-1.994,1.028-4.073,1.028-6.274c0-4.074-1.197-7.84-3.153-11.092
		c8.721-16.101,13.785-34.496,13.777-54.064c-0.008-30.975-12.412-59.02-32.471-79.548c0.882-7.456,2.302-19.369,3.774-31.78
		c2.416-20.358,5.009-42.052,5.63-46.838v-0.03c0.114-0.905,0.176-1.834,0.176-2.761c-0.007-5.945-2.37-11.13-5.446-15.265
		c-4.703-6.236-11.185-10.9-18.686-14.797c-7.518-3.851-16.132-6.788-25.237-8.56C290.005,0.698,281.797,0,273.781,0
		c-9.235,0.016-18.118,0.898-25.804,3.038c-3.858,1.105-7.456,2.485-10.862,4.764c-1.703,1.151-3.367,2.546-4.856,4.403
		c-1.473,1.849-2.746,4.219-3.345,6.904c-0.844,3.766-3.038,11.583-5.761,20.727c-4.088,13.777-9.435,30.906-13.746,44.56
		c-1.986,6.298-3.736,11.79-5.062,15.948c-36.904,18.84-62.226,57.125-62.234,101.409c-0.007,19.699,5.117,38.208,13.946,54.386
		c-1.848,3.176-2.983,6.827-2.983,10.77c0,2.102,0.398,4.096,0.958,6.014c-24.339,25.345-39.42,59.741-39.413,97.696
		c0.008,78.089,63.293,141.374,141.383,141.382c78.089-0.007,141.374-63.292,141.382-141.382
		C397.39,332.801,382.424,298.512,358.238,273.183z M234.974,76.386c3.184-10.194,6.498-20.949,9.266-30.292
		c2.493-8.407,4.48-15.418,5.684-20.374c1.189-0.606,3.851-1.672,7.257-2.286c4.58-0.92,10.478-1.45,16.599-1.442
		c6.697,0,13.693,0.614,19.668,1.772c9.49,1.811,18.457,5.47,24.31,9.42c2.938,1.956,5.048,3.966,6.136,5.455
		c0.552,0.744,0.852,1.334,0.982,1.687l0.13,0.46c-0.852,6.612-5.016,41.607-7.794,65.034
		c-17.688-11.314-38.654-17.95-61.213-17.957c-8.806,0-17.337,1.096-25.567,2.991C231.86,86.321,233.402,81.426,234.974,76.386z
		 M192.133,137.884c16.384-16.37,38.892-26.449,63.868-26.456c24.976,0.007,47.482,10.086,63.867,26.456
		c16.37,16.386,26.449,38.892,26.457,63.868c-0.008,15.84-4.135,30.638-11.292,43.555H176.967
		c-7.157-12.918-11.284-27.715-11.292-43.555C165.683,176.776,175.763,154.27,192.133,137.884z M339.306,453.924
		c-21.356,21.34-50.734,34.504-83.305,34.511c-32.571-0.007-61.95-13.17-83.306-34.511c-21.34-21.356-34.504-50.736-34.512-83.306
		c0.008-32.18,13.041-61.106,33.982-82.362c0.837,0.1,1.65,0.253,2.509,0.253h98.187v67.151c0,7.38,5.983,13.363,13.362,13.363
		h30.231c7.379,0,13.355-5.983,13.355-13.363v-67.151h7.855c0.752,0,1.472-0.146,2.201-0.222
		c20.918,21.256,33.944,50.167,33.952,82.331C373.809,403.189,360.646,432.568,339.306,453.924z" style="fill: rgb(75, 75, 75);"></path>
	<path class="st0" d="M214.931,189.34c7.057,0,12.764-5.714,12.764-12.764s-5.707-12.764-12.764-12.764
		c-7.042,0-12.764,5.714-12.764,12.764S207.889,189.34,214.931,189.34z" style="fill: rgb(75, 75, 75);"></path>
	<path class="st0" d="M292.499,189.34c7.057,0,12.764-5.714,12.764-12.764s-5.708-12.764-12.764-12.764
		c-7.042,0-12.764,5.714-12.764,12.764S285.457,189.34,292.499,189.34z" style="fill: rgb(75, 75, 75);"></path>
	<polygon class="st0" points="218.513,218.843 218.474,218.382 218.275,217.961 	" style="fill: rgb(75, 75, 75);"></polygon>
	<path class="st0" d="M218.474,218.382c1.342,4.119,5.416,6.75,9.75,6.091l30.891-4.695c0,0,7.364-14.728-7.364-21.601
		l-27.661,9.988C219.893,209.683,217.569,214.056,218.474,218.382z" style="fill: rgb(75, 75, 75);"></path>
</g>
</svg>
