<!--?xml version="1.0" encoding="utf-8"?-->
<!-- Generator: Adobe Illustrator 18.1.1, SVG Export Plug-In . SVG Version: 6.00 Build 0)  -->

<svg version="1.1" id="_x32_" xmlns="http://www.w3.org/2000/svg" xmlns:xlink="http://www.w3.org/1999/xlink" x="0px" y="0px" viewBox="0 0 512 512" style="width: 128px; height: 128px; opacity: 1;" xml:space="preserve">
<style type="text/css">
	.st0{fill:#4B4B4B;}
</style>
<g>
	<path class="st0" d="M0,295.5c0,69.352,56.216,125.582,125.568,125.582h260.834C455.77,421.082,512,364.852,512,295.5H0z
		 M59.193,356.314l-18.986-32.876h37.956L59.193,356.314z M89.403,356.314l18.986-32.876l18.971,32.876H89.403z M157.585,356.314
		l-18.97-32.876h37.956L157.585,356.314z M187.81,356.314l18.986-32.876l18.986,32.876H187.81z M255.992,356.314l-18.97-32.876
		h37.956L255.992,356.314z M286.218,356.314l18.986-32.876l18.97,32.876H286.218z M354.4,356.314l-18.985-32.876h37.956
		L354.4,356.314z M384.611,356.314l18.985-32.876l18.986,32.876H384.611z M452.808,356.314l-18.985-32.876h37.956L452.808,356.314z" style="fill: rgb(75, 75, 75);"></path>
	<path class="st0" d="M256.008,90.918c-76.208,0-95.268,100.028-109.559,185.767h219.11
		C351.275,190.946,332.216,90.918,256.008,90.918z" style="fill: rgb(75, 75, 75);"></path>
</g>
</svg>
