<?xml version="1.0" encoding="utf-8"?>
<!-- Generator: Adobe Illustrator 18.1.1, SVG Export Plug-In . SVG Version: 6.00 Build 0)  -->
<!DOCTYPE svg PUBLIC "-//W3C//DTD SVG 1.1//EN" "http://www.w3.org/Graphics/SVG/1.1/DTD/svg11.dtd">
<svg version="1.1" id="_x32_" xmlns="http://www.w3.org/2000/svg" xmlns:xlink="http://www.w3.org/1999/xlink" x="0px" y="0px"
	 viewBox="0 0 512 512" style="enable-background:new 0 0 512 512;" xml:space="preserve">
<style type="text/css">
	.st0{fill:#4B4B4B;}
</style>
<g>
	<path class="st0" d="M402.486,186.932l21.048-83.753l-85.88-10.189l-46.212,157.589c-1.202,0.453-2.424,0.899-3.676,1.312
		c-2.904,0.952-5.957,1.778-9.144,2.471l-1.302-11.262l31.877-193.172l39.359,5.021l-3.743,27.138l27.242,3.756l7.542-54.656
		L286.38,19.287l-20.529,124.41L249.268,0l-92.49,8.038l28.39,218.119c-6.024-6.666-10.496-13.386-13.556-18.793
		c-1.988-3.496-3.39-6.447-4.262-8.445c-0.436-0.999-0.742-1.758-0.925-2.224c-0.094-0.24-0.154-0.4-0.187-0.493l-0.007-0.013
		l-3.203-9.257H81.494l33.987,290.496l3.344,3.376c1.505,1.538,10.169,9.464,31.224,16.849
		c21.061,7.406,54.476,14.339,105.952,14.346c51.477-0.007,84.889-6.94,105.953-14.346c21.051-7.386,29.716-15.311,31.221-16.849
		l3.346-3.376l33.985-290.496H402.486z M357.499,123.038l31.74,3.77l-15.111,60.124h-25.158l-3.196,9.237
		c-0.014,0.046-0.09,0.246-0.253,0.666c-0.679,1.732-2.697,6.507-6.324,12.58c-2.864,4.808-6.753,10.39-11.711,15.984
		L357.499,123.038z M225.014,29.716l24.544,212.712l-0.596,3.61l1.032,0.166l1.202,10.409c-13.949-0.586-25.537-3.622-35.37-8.012
		L187.756,32.959L225.014,29.716z M370.446,463.63c-3.577,2.237-10.166,5.707-20.982,9.216
		c-17.931,5.814-47.45,11.655-93.463,11.655c-49.019,0-79.314-6.627-96.832-12.787c-8.764-3.083-14.348-6.047-17.548-8.038
		c-0.024-0.013-0.044-0.027-0.064-0.04l-29.156-249.2h31.854c0.562,1.145,1.166,2.344,1.858,3.636
		c5.88,10.974,16.576,27.291,34.394,41.183c8.901,6.94,19.59,13.226,32.183,17.742c12.587,4.529,27.052,7.259,43.312,7.246
		c21.684,0.02,40.162-4.869,55.273-12.314c11.345-5.574,20.798-12.534,28.546-19.78c11.632-10.882,19.473-22.37,24.494-31.228
		c1.346-2.37,2.478-4.542,3.433-6.486h31.854L370.446,463.63z"/>
	<polygon class="st0" points="143.868,171.475 122.258,96.866 153.228,90.373 147.585,63.454 87.59,76.034 117.452,179.126 	"/>
	<path class="st0" d="M293.206,409.053c-17.984-2.11-17.984-32.786-19.04-59.231h-12.693h-3.174h-3.173h-12.693
		c-1.059,26.446-1.059,57.121-19.04,59.231c-17.981,2.118-25.387-92.024-25.387-92.024h-33.848
		c3.174,17.988,10.576,120.588,52.888,120.588c21.262,0,37.544-14.824,41.254-39.139c3.706,24.314,19.993,39.139,41.254,39.139
		c42.309,0,49.715-102.6,52.888-120.588h-33.848C318.593,317.03,311.187,411.172,293.206,409.053z"/>
</g>
</svg>
