<?xml version="1.0" encoding="utf-8"?>
<!-- Generator: Adobe Illustrator 18.1.1, SVG Export Plug-In . SVG Version: 6.00 Build 0)  -->
<!DOCTYPE svg PUBLIC "-//W3C//DTD SVG 1.1//EN" "http://www.w3.org/Graphics/SVG/1.1/DTD/svg11.dtd">
<svg version="1.1" id="_x32_" xmlns="http://www.w3.org/2000/svg" xmlns:xlink="http://www.w3.org/1999/xlink" x="0px" y="0px"
	 viewBox="0 0 512 512" style="enable-background:new 0 0 512 512;" xml:space="preserve">
<style type="text/css">
	.st0{fill:#4B4B4B;}
</style>
<g>
	<path class="st0" d="M417.462,129.404c-5.354-4.572-12.936-10.452-21.911-17.273c-13.429-10.21-29.843-22.404-45.065-34.106
		c-15.186-11.657-29.295-22.962-37.399-30.636c-11.742-11.092-22.709-21.853-31.217-29.99c-4.267-4.072-7.891-7.467-10.908-10.099
		c-1.532-1.322-2.87-2.44-4.399-3.543c-0.79-0.559-1.599-1.117-2.859-1.786c-0.644-0.338-1.404-0.705-2.529-1.095
		c-1.142-0.368-2.638-0.846-5.178-0.875c-2.481,0.022-4.006,0.492-5.157,0.868c-2.176,0.771-3.16,1.44-4.094,2.013
		c-1.642,1.073-2.745,1.992-4.006,3.058c-2.142,1.838-4.494,4.05-7.27,6.718c-8.254,7.96-20.107,19.978-33.459,32.584v-0.008
		c-5.509,5.204-13.837,12.15-23.363,19.677c-14.315,11.327-31.393,24.094-46.8,35.642c-7.707,5.784-14.998,11.261-21.368,16.149
		c-6.376,4.896-11.79,9.151-15.943,12.702c-41.673,35.51-68.134,85.5-68.116,140.958c-0.019,55.452,26.443,105.449,68.12,140.959
		l-0.004-0.008c26.88,22.941,60.174,40.045,97.228,49.344l-17.63,17.023c-4.484,4.329-4.609,11.481-0.28,15.965
		c4.333,4.484,11.478,4.608,15.965,0.279l28.99-27.991c2.889,0.404,5.799,0.75,8.725,1.059l-7.909,30.916
		c-1.546,6.042,2.099,12.194,8.141,13.738c6.038,1.544,12.19-2.094,13.734-8.137l8.971-35.061c1.841,0.037,3.672,0.118,5.524,0.118
		c1.852,0,3.682-0.081,5.523-0.118l8.971,35.061c1.544,6.043,7.696,9.681,13.734,8.137c6.042-1.544,9.688-7.696,8.141-13.738
		l-7.909-30.916c2.926-0.31,5.836-0.655,8.725-1.059l28.99,27.991c4.487,4.329,11.632,4.204,15.965-0.279
		c4.33-4.484,4.205-11.636-0.279-15.965l-17.63-17.023c37.058-9.291,70.347-26.396,97.235-49.336
		c41.673-35.51,68.134-85.507,68.116-140.959C485.596,214.903,459.135,164.913,417.462,129.404z M125.538,398.192l-11.452-9.776
		c-35.972-30.776-57.538-72.372-57.556-118.055c0.018-45.696,21.584-87.278,57.56-118.069c4.513-3.859,12.162-9.798,21.232-16.67
		c8.266-6.263,17.788-13.378,27.535-20.698c-0.36,0.412-0.768,0.874-1.121,1.279c-6.112,7.012-11.286,13.069-14.903,17.736
		c-27.332,35.356-43.867,83.479-43.885,136.423c0.018,52.931,16.553,101.068,43.885,136.416c2.077,2.682,4.337,5.145,6.538,7.674
		c-14.396-7.306-27.604-16.053-39.281-26.035L125.538,398.192z M206.23,429.21c-15.439-8.438-29.567-20.779-41.54-36.252
		c-23.977-30.937-39.181-74.386-39.162-122.597c-0.019-48.218,15.185-91.659,39.162-122.604c3.014-3.904,8.064-9.835,14.062-16.707
		c9.015-10.342,20.239-22.904,30.765-35.098c6.711-7.777,13.01-15.289,18.464-22.176c-2.371,7.453-5.028,15.502-7.659,23.374
		c-5.388,16.134-10.628,31.467-13.297,40.508c-10.169,34.605-16.244,81.207-16.262,132.703c0.018,51.49,6.093,98.092,16.262,132.697
		c3.664,12.393,7.843,23.183,12.661,32.342C215.106,433.643,210.611,431.6,206.23,429.21z M283.307,396.678
		c-4.631,15.818-10.187,28.299-15.58,35.987c-1.638,2.367-3.237,4.204-4.711,5.645c-2.334,0.066-4.664,0.147-7.02,0.147
		c-2.364,0-4.704-0.081-7.05-0.147c-2.653-2.616-5.751-6.718-8.739-12.29c-4.072-7.498-8.034-17.48-11.522-29.343
		c-9.353-31.68-15.362-76.665-15.344-126.317c-0.019-49.658,5.991-94.636,15.344-126.323c2.381-8.1,7.655-23.588,13.05-39.736
		c5.414-16.215,10.97-33.143,14.19-45.212c0.026-0.088,0.047-0.176,0.07-0.265c0.026,0.089,0.047,0.177,0.073,0.272
		c3.216,12.062,8.773,28.99,14.183,45.204c5.399,16.149,10.673,31.637,13.054,39.736c9.353,31.688,15.362,76.665,15.344,126.323
		C298.669,320.013,292.659,364.998,283.307,396.678z M305.762,429.21c-4.374,2.389-8.861,4.425-13.429,6.174
		c4.792-9.144,8.985-19.948,12.635-32.327c10.169-34.605,16.244-81.207,16.262-132.697c-0.018-51.496-6.093-98.098-16.262-132.703
		c-2.668-9.041-7.909-24.374-13.297-40.508c-2.624-7.85-5.27-15.869-7.637-23.307c8.302,10.481,18.769,22.558,29.092,34.333
		c7.112,8.1,14.105,15.98,20.114,22.875c5.998,6.872,11.048,12.804,14.065,16.707c23.974,30.945,39.178,74.386,39.159,122.604
		c0.019,48.212-15.185,91.66-39.159,122.597C335.329,408.431,321.201,420.772,305.762,429.21z M397.913,388.416
		c-11.679,9.982-24.892,18.736-39.291,26.043c2.205-2.536,4.462-4.999,6.542-7.681c27.328-35.348,43.863-83.486,43.881-136.416
		c-0.018-52.944-16.553-101.067-43.881-136.423c-3.62-4.667-8.795-10.724-14.907-17.736c-0.441-0.5-0.933-1.066-1.382-1.573
		c4.851,3.66,9.67,7.292,14.3,10.776c14.884,11.195,28.137,21.242,34.734,26.887c35.977,30.791,57.543,72.372,57.561,118.069
		C455.453,316.044,433.886,357.64,397.913,388.416z"/>
</g>
</svg>
