<?xml version="1.0" encoding="utf-8"?>
<!-- Generator: Adobe Illustrator 18.1.1, SVG Export Plug-In . SVG Version: 6.00 Build 0)  -->
<!DOCTYPE svg PUBLIC "-//W3C//DTD SVG 1.1//EN" "http://www.w3.org/Graphics/SVG/1.1/DTD/svg11.dtd">
<svg version="1.1" id="_x32_" xmlns="http://www.w3.org/2000/svg" xmlns:xlink="http://www.w3.org/1999/xlink" x="0px" y="0px"
	 viewBox="0 0 512 512" style="enable-background:new 0 0 512 512;" xml:space="preserve">
<style type="text/css">
	.st0{fill:#4B4B4B;}
</style>
<g>
	<path class="st0" d="M480.703,347.518c-3.222-3.884-7.401-7.296-12.496-10.492c-8.92-5.534-20.539-10.44-34.581-14.789
		c-7.479-2.344-15.706-4.473-24.521-6.477c-34.555-37.888-83.597-61.584-137.944-61.63c-50.968,0.046-97.338,20.932-131.394,54.766
		c-15.994,2.391-30.796,5.285-44.025,8.521c-20.657,5.115-37.528,11.167-49.724,18.293c-6.064,3.536-11.068,7.374-14.749,11.808
		c-3.642,4.342-6.039,9.634-6.039,15.3c0,5.711,2.397,10.957,6.039,15.345c0.17,0.203,0.393,0.412,0.576,0.628
		c20.657,40.927,70.681,87.238,102.629,104.797C170.668,503.472,204.292,512,255.994,512c51.727,0,85.339-8.528,121.518-28.411
		c31.974-17.559,82.038-63.916,102.668-104.863c0.052-0.065,0.131-0.124,0.184-0.19c0.131-0.118,0.209-0.249,0.34-0.373
		c3.668-4.388,6.065-9.634,6.065-15.345C486.768,357.152,484.371,351.861,480.703,347.518z M271.162,266.915
		c44.09,0,84.474,16.714,115.506,44.372c3.314,2.934,6.484,5.966,9.588,9.156c2.188,2.259,4.297,4.565,6.367,6.948
		c0.38,0.387,0.707,0.774,1.035,1.153c-2.148-0.812-4.297-1.572-6.484-2.305c-8.554-2.888-17.37-5.279-26.329-7.028
		c-26.656-21.606-60.346-34.521-96.918-34.521c-24.756,0-48.151,5.881-68.991,16.458h-0.04c-2.266-0.098-4.493-0.138-6.772-0.138
		c-11.37,0-22.53,0.937-33.389,2.692C194.403,280.603,231.224,266.915,271.162,266.915z M343.075,315.629
		c-4.179-0.256-8.436-0.38-12.693-0.38c-4.965,0-9.877,0.17-14.763,0.55c-10.322,0.688-20.46,2.181-30.336,4.395h-0.04
		c-4.952-2.306-9.994-4.395-15.168-6.268c-12.143-4.565-24.875-7.925-37.973-10.099c13.216-4.14,27.272-6.346,41.824-6.346
		C299.01,297.481,322.536,304.076,343.075,315.629z M40.689,369.845c-2.306-2.856-3.052-5.069-3.052-7.027
		c0-1.958,0.746-4.179,3.052-6.988c2.03-2.476,5.252-5.161,9.549-7.846c7.532-4.736,18.351-9.379,31.712-13.512
		c1.808-0.557,3.707-1.113,5.62-1.663c-16.911,10.57-32.328,23.44-45.767,38.274C41.396,370.657,41.029,370.232,40.689,369.845z
		 M72.152,387.83c-7.938-2.849-14.684-5.875-20.015-8.986c-0.078-0.039-0.196-0.138-0.288-0.17c1.205-1.284,2.398-2.567,3.642-3.838
		c18.849-19.439,41.379-35.039,66.424-45.571c1.899-0.805,3.838-1.611,5.776-2.331c1.952-0.773,3.891-1.5,5.868-2.181
		c3.89-1.362,7.82-2.594,11.828-3.707c0.04,0,0.118-0.04,0.17-0.04c21.6-3.026,45.584-5.207,71.087-6.307
		c16.897,1.571,33.18,5.318,48.596,10.989c-10.741,3.537-21.154,7.938-31.122,13.171h-0.04c-11.658-2.469-23.643-3.746-35.956-3.746
		c-7.362,0-14.592,0.465-21.692,1.362c-7.152,0.845-14.186,2.181-21.036,3.923c-11.999,2.98-23.525,7.198-34.437,12.568
		c-7.06,3.412-13.885,7.336-20.408,11.639C90.333,371.378,80.823,379.139,72.152,387.83z M98.638,395.807
		c-4.545-1.114-8.842-2.305-12.928-3.498c1.938-1.834,3.916-3.583,5.947-5.286c5.868-4.945,12.104-9.502,18.6-13.596v-0.046
		c10.204-6.392,21.076-11.762,32.524-15.856c6.327-2.299,12.811-4.172,19.426-5.665h0.04c11.579-2.6,23.564-3.969,35.878-3.969
		c6.288,0,12.483,0.347,18.6,1.074c-9.418,6.085-18.391,12.955-26.787,20.5c-29.512,1.618-56.705,12.182-79.104,29.105
		C106.614,397.68,102.567,396.783,98.638,395.807z M128.398,401.938c14.134-8.823,29.97-14.999,46.828-17.939
		c-6.444,6.942-12.444,14.363-17.932,22.163C147.195,404.924,137.528,403.522,128.398,401.938z M364.858,404.839
		c-7.571,1.068-15.417,2.004-23.525,2.809c-4.873,0.511-9.837,0.989-14.881,1.363c-8.723,0.733-17.644,1.329-26.826,1.755
		c-5.986,0.294-12.064,0.55-18.22,0.72c-4.335,0.131-8.684,0.21-13.098,0.256c2.685-1.448,5.41-2.81,8.174-4.002
		c4.466-2.05,9.09-3.798,13.845-5.286c8.108-2.6,16.544-4.434,25.216-5.376c4.873-0.551,9.837-0.852,14.841-0.852h1.65
		c10.125,0.125,20.002,1.408,29.512,3.714c4.126,1.028,8.226,2.207,12.194,3.622C370.844,403.994,367.87,404.406,364.858,404.839z
		 M396.544,399.508c-8.763-4.513-18.01-8.18-27.638-10.826c-6.209-1.742-12.575-3.065-19.098-3.916
		c-6.367-0.898-12.863-1.323-19.426-1.323c-3.511,0-6.982,0.131-10.414,0.386c-5.619,0.373-11.2,1.106-16.661,2.168
		c-8.764,1.67-17.225,4.139-25.372,7.296c-4.755,1.873-9.432,3.956-13.924,6.34c-6.824,3.504-13.361,7.558-19.518,12.11
		c-10.531-0.125-20.905-0.426-31.03-0.937c8.265-8.226,17.264-15.509,26.983-21.822c4.546-3.025,9.261-5.75,14.094-8.265
		c8.226-4.31,16.819-7.892,25.713-10.741c0,0,0,0,0.039,0c5.489-1.794,11.068-3.281,16.78-4.434
		c9.798-2.043,19.923-3.196,30.245-3.366c0.995-0.046,2.03-0.046,3.065-0.046c5.541,0,10.99,0.255,16.36,0.819
		c19.884,1.952,38.773,7.538,56.05,16.02c6.235,3.065,12.234,6.53,18.024,10.315c1.559,1.061,3.131,2.128,4.702,3.236
		C416.808,395.034,407.088,397.379,396.544,399.508z M440.241,387.706c-1.126-0.898-2.279-1.795-3.432-2.639
		c-7.82-5.888-16.085-11.128-24.809-15.653v-0.04c-6.484-3.36-13.217-6.385-20.12-8.946v-0.039
		c-18.81-6.995-39.06-10.872-60.136-11.042h-1.362c-6.157,0-12.234,0.301-18.234,0.93c-10.453,1.074-20.656,3.078-30.533,5.926
		c-5.75,1.671-11.37,3.59-16.871,5.797c-9.051,3.668-17.723,8.016-25.988,13.046c-4.925,2.986-9.68,6.183-14.265,9.595
		c-10.008,7.453-19.216,15.896-27.481,25.228c-8.685-0.557-17.121-1.284-25.334-2.089c4.952-6.569,10.322-12.83,16.072-18.712
		c2.318-2.39,4.715-4.722,7.152-7.034c4.624-4.342,9.51-8.488,14.54-12.398c8.357-6.484,17.198-12.28,26.46-17.343
		c5.541-3.078,11.278-5.842,17.146-8.357c9.929-4.264,20.211-7.715,30.874-10.309c6.497-1.624,13.152-2.868,19.884-3.798
		c8.684-1.199,17.565-1.795,26.578-1.795c11.946,0,23.643,1.068,35,3.118l0.052,0.039c8.253,1.487,16.321,3.492,24.207,6.006
		c10.165,3.202,19.976,7.243,29.342,11.979c7.4,3.746,14.552,7.924,21.377,12.529v0.039c7.348,4.912,14.383,10.315,21.036,16.158
		C455.946,381.267,448.795,384.594,440.241,387.706z M471.272,369.845c-13.23-11.933-27.94-22.248-43.763-30.559
		c-1.572-2.384-3.183-4.683-4.886-6.988c15.679,4.355,28.398,9.333,37.24,14.54c5.253,3.058,9.143,6.176,11.409,8.992
		c2.358,2.81,3.105,5.03,3.105,6.988C474.377,364.776,473.63,366.99,471.272,369.845z"/>
	<path class="st0" d="M242.2,187.477l52.553-52.566c5.2-5.194,10.348-5.01,14.448-0.91c3.746,3.746,2.868,9.038-0.8,12.712
		l-54.124,54.51c-5.986,6-4.598,15.058,0.262,19.904c4.846,4.866,13.898,6.242,19.897,0.262l54.321-54.327
		c3.668-3.661,9.169-4.349,12.916-0.603c4.087,4.087,4.27,9.248-0.917,14.448l-52.553,52.546
		c-5.305,5.298-5.947,13.243-0.524,18.659c5.423,5.423,12.981,3.655,18.142-0.34c5.174-3.996,47.745-40.567,68.991-61.132
		c21.247-20.591,20.906-42.82,15.928-56.443c-3.406-9.293-1.664-20.238,5.973-27.874l75.528-71.704
		c2.162-2.082,3.393-4.951,3.419-7.951c0.026-3-1.153-5.868-3.275-8.01L456.995,3.282c-2.122-2.122-5.004-3.301-8.004-3.281
		c-2.999,0.04-5.868,1.251-7.938,3.419l-71.716,75.534c-7.637,7.623-18.574,9.372-27.874,5.966
		c-13.61-4.971-35.852-5.305-56.429,15.935c-20.579,21.24-57.138,63.824-61.133,68.998c-3.995,5.16-5.776,12.712-0.353,18.148
		C228.971,193.398,236.909,192.762,242.2,187.477z"/>
</g>
</svg>
