<!--?xml version="1.0" encoding="utf-8"?-->
<!-- Generator: Adobe Illustrator 18.1.1, SVG Export Plug-In . SVG Version: 6.00 Build 0)  -->

<svg version="1.1" id="_x32_" xmlns="http://www.w3.org/2000/svg" xmlns:xlink="http://www.w3.org/1999/xlink" x="0px" y="0px" viewBox="0 0 512 512" style="width: 128px; height: 128px; opacity: 1;" xml:space="preserve">
<style type="text/css">
	.st0{fill:#4B4B4B;}
</style>
<g>
	<path class="st0" d="M283.608,74.632v-47.07c0-7.469-6.066-13.527-13.528-13.527h-28.154c-7.47,0-13.537,6.058-13.537,13.527v47.07
		c9.301,1.508,18.608,4.148,27.61,7.953C265.007,78.78,274.307,76.139,283.608,74.632z" style="fill: rgb(75, 75, 75);"></path>
	<path class="st0" d="M462.933,115.042c-53.223-40.133-104.07,0-104.07,0c-27.002-35.613-71.413-32.773-102.864-17.652
		c-31.458-15.121-75.854-17.961-102.871,17.652c0,0-50.848-40.133-104.063,0c-95.677,72.133-30.346,283.113,18.624,338.394
		c51.889,58.578,88.656,31.535,88.656,31.535s45.2,22.957,99.653,7.844c54.453,15.113,99.653-7.844,99.653-7.844
		s36.751,27.043,88.664-31.535C493.287,398.155,558.609,187.174,462.933,115.042z M255.999,274.26l27.033,41.68h-27.033h-27.033
		L255.999,274.26z M149.72,193.218l43.078,73.156H149.72h-43.078L149.72,193.218z M366.49,395.913
		c-13.678,13.695-29.495,23.152-45.152,29.637v-13.86h-33.794v23.871c-12.543,2.398-23.61,3.18-31.545,3.18
		c-7.944,0-19.003-0.781-31.546-3.18V411.69h-33.786v13.86c-15.65-6.484-31.466-15.942-45.168-29.637
		c-34.093-34.094-36.05-74.348-24.777-69.824c9.884,3.942,26.213,12.133,50.217,19.008v36.184h33.802v-28.723
		c15.059,2.398,32.082,3.945,51.258,3.945c19.176,0,36.207-1.547,51.266-3.945v28.723h33.786v-36.184
		c24.012-6.875,40.348-15.066,50.225-19.008C402.539,321.565,400.591,361.819,366.49,395.913z M362.285,266.374h-43.078
		l43.078-73.156l43.063,73.156H362.285z" style="fill: rgb(75, 75, 75);"></path>
</g>
</svg>
