<!--?xml version="1.0" encoding="utf-8"?-->
<!-- Generator: Adobe Illustrator 18.1.1, SVG Export Plug-In . SVG Version: 6.00 Build 0)  -->

<svg version="1.1" id="_x32_" xmlns="http://www.w3.org/2000/svg" xmlns:xlink="http://www.w3.org/1999/xlink" x="0px" y="0px" viewBox="0 0 512 512" style="width: 128px; height: 128px; opacity: 1;" xml:space="preserve">
<style type="text/css">
	.st0{fill:#4B4B4B;}
</style>
<g>
	<rect x="76.716" y="86.706" class="st0" width="72.801" height="27.756" style="fill: rgb(75, 75, 75);"></rect>
	<polygon class="st0" points="177.126,258.883 142.596,123.55 103.584,123.55 90.586,123.55 90.586,153.454 109.717,172.589 
		129.026,293.993 	" style="fill: rgb(75, 75, 75);"></polygon>
	<path class="st0" d="M427.284,388.418l-47.47-39.38c-4.56-3.78-10.443-5.578-16.334-4.976c-5.891,0.594-11.299,3.51-15.015,8.137
		l-16.56,20.593l26.128,136.649l72.377-90.17C437.976,409.866,436.582,396.127,427.284,388.418z" style="fill: rgb(75, 75, 75);"></path>
	<path class="st0" d="M204.72,224.726c-0.23,0.887-0.638,1.703-0.816,2.614c30.525-5.926,62.172-6.006,92.717-0.23
		c-0.04-0.214-0.139-0.372-0.182-0.579l35.846-22.923c0.824-0.514,1.145-1.56,0.764-2.456c-0.392-0.896-1.37-1.378-2.313-1.149
		l-41.302,10.317c-0.891-1.316-1.949-2.472-2.967-3.693l14.108-40.568c0.32-0.911-0.063-1.909-0.9-2.384
		c-0.832-0.476-1.878-0.286-2.496,0.451l-27.142,32.225c-3.138-0.222-6.291-0.293-9.444-0.404l-8.498-46.052
		c-0.187-0.943-0.999-1.632-1.961-1.632c-0.959,0-1.787,0.69-1.949,1.632l-8.526,46.091c-3.882,0.15-7.773,0.222-11.648,0.539
		l-27.272-32.399c-0.622-0.737-1.672-0.935-2.519-0.451c-0.837,0.467-1.209,1.473-0.9,2.369l14.599,42.018l1.862-1.054
		c-1.244,1.513-2.416,3.074-3.462,4.746l1.438-3.344l-41.606-10.387c-0.951-0.23-1.918,0.238-2.31,1.149
		c-0.381,0.887-0.059,1.933,0.761,2.464L204.72,224.726z" style="fill: rgb(75, 75, 75);"></path>
	<path class="st0" d="M318.426,360.051c-1.371-7.179-6.129-13.208-12.892-16.172L203.143,299.19l-14.27-36.456l-64.878,51.352
		c-8.981,6.965-11.097,19.65-4.964,29.27l24.297,37.724l-2.955,2.321l-0.313,0.206c-8.035,6.133-10.78,17.02-6.767,26.314
		l15.744,36.464l32.019-32.97l7.392,7.179l-56.636,58.435L130.021,512h217.464l-24.622-128.598L318.426,360.051z" style="fill: rgb(75, 75, 75);"></path>
	<path class="st0" d="M94.052,77.174h13.775c-5.582-5.158-10.7-20.696,3.126-33.802c6.069-9.532,6.069-9.532,6.069-9.532
		s15.562,22.946,5.266,43.334h9.9c0,0,10.407-6.069,11.271-29.467c0.868-23.406-19.068-46.805-29.472-47.668
		c-10.403-0.864,1.736,12.987-19.935,27.733C72.382,42.509,81.918,71.104,94.052,77.174z" style="fill: rgb(75, 75, 75);"></path>
	<path class="st0" d="M271.908,317.652c11.124-5.57,19.702-15.396,23.672-27.352l-44.023-50.204l-39.036,43.009l-4.79,4.786
		l0.828,2.1L271.908,317.652z" style="fill: rgb(75, 75, 75);"></path>
	<path class="st0" d="M298.004,274.889l-0.381-36.567l-2.94-0.555c-11.156-2.115-22.527-3.384-33.964-3.867l37.244,42.478
		C297.976,275.88,298.004,275.396,298.004,274.889z" style="fill: rgb(75, 75, 75);"></path>
	<path class="st0" d="M242.218,233.885c-12.218,0.436-24.4,1.774-36.322,4.104l-2.908,0.555l0.38,37.336c0,0.039,0,0.055,0,0.087
		L242.218,233.885z" style="fill: rgb(75, 75, 75);"></path>
</g>
</svg>
