<?xml version="1.0" encoding="utf-8"?>
<!-- Generator: Adobe Illustrator 18.1.1, SVG Export Plug-In . SVG Version: 6.00 Build 0)  -->
<!DOCTYPE svg PUBLIC "-//W3C//DTD SVG 1.1//EN" "http://www.w3.org/Graphics/SVG/1.1/DTD/svg11.dtd">
<svg version="1.1" id="_x32_" xmlns="http://www.w3.org/2000/svg" xmlns:xlink="http://www.w3.org/1999/xlink" x="0px" y="0px"
	 viewBox="0 0 512 512" style="enable-background:new 0 0 512 512;" xml:space="preserve">
<style type="text/css">
	.st0{fill:#4B4B4B;}
</style>
<g>
	<path class="st0" d="M441.596,46.582l12.666-29.813l-19.715-8.38L414.823,0l-12.675,29.814
		c-13.062,25.232-66.28-8.397-99.512,36.871c-30.024,40.913-44.274,49.36-44.274,49.36s56.806,19.749,80.522-3.166
		c0,0-3.234,40.433,23.581,65.017c36.306,2.248,63.188-28.121,63.188-28.121c2.308,38.387,53.571,60.182,53.571,60.182
		s-5.297-16.439,4.835-66.128C494.805,91.2,431.296,70.794,441.596,46.582z"/>
	<path class="st0" d="M414.68,188.826c-17.357,9.845-35.759,14.436-53.723,13.324c-5.55-0.346-10.822-2.594-14.932-6.35
		c-15.782-14.494-23.75-32.668-27.724-48.484c-19.421,2.737-31.658,2.914-43.895-0.11c-36.222,37.629-112.894,72.689-149.976,94.005
		C12.924,305.292,4.915,413.008,59.892,469.4c47.096,48.316,126.716,68.613,235.079-10.544
		c87.141-63.636,126.942-184.026,144.814-241.69C429.696,210.639,424.416,203.118,414.68,188.826z M67.902,411.214
		c-12.876-117.881,115.27-139.761,115.27-139.761S97.631,346.559,67.902,411.214z"/>
</g>
</svg>
